<svg width="48" height="48" viewBox="0 0 48 48" fill="none" xmlns="http://www.w3.org/2000/svg">
<path d="M3 18.2C3 12.8795 3 10.2193 4.03544 8.18709C4.94624 6.39955 6.39955 4.94624 8.18709 4.03544C10.2193 3 12.8795 3 18.2 3H29.8C35.1205 3 37.7807 3 39.8129 4.03544C41.6004 4.94624 43.0538 6.39955 43.9646 8.18709C45 10.2193 45 12.8795 45 18.2V29.8C45 35.1205 45 37.7807 43.9646 39.8129C43.0538 41.6004 41.6004 43.0538 39.8129 43.9646C37.7807 45 35.1205 45 29.8 45H18.2C12.8795 45 10.2193 45 8.18709 43.9646C6.39955 43.0538 4.94624 41.6004 4.03544 39.8129C3 37.7807 3 35.1205 3 29.8V18.2Z" fill="white"/>
<path d="M3 18.2C3 12.8795 3 10.2193 4.03544 8.18709C4.94624 6.39955 6.39955 4.94624 8.18709 4.03544C10.2193 3 12.8795 3 18.2 3H29.8C35.1205 3 37.7807 3 39.8129 4.03544C41.6004 4.94624 43.0538 6.39955 43.9646 8.18709C45 10.2193 45 12.8795 45 18.2V29.8C45 35.1205 45 37.7807 43.9646 39.8129C43.0538 41.6004 41.6004 43.0538 39.8129 43.9646C37.7807 45 35.1205 45 29.8 45H18.2C12.8795 45 10.2193 45 8.18709 43.9646C6.39955 43.0538 4.94624 41.6004 4.03544 39.8129C3 37.7807 3 35.1205 3 29.8V18.2Z" fill="url(#paint0_radial_234_308)"/>
<path d="M3 18.2C3 12.8795 3 10.2193 4.03544 8.18709C4.94624 6.39955 6.39955 4.94624 8.18709 4.03544C10.2193 3 12.8795 3 18.2 3H29.8C35.1205 3 37.7807 3 39.8129 4.03544C41.6004 4.94624 43.0538 6.39955 43.9646 8.18709C45 10.2193 45 12.8795 45 18.2V29.8C45 35.1205 45 37.7807 43.9646 39.8129C43.0538 41.6004 41.6004 43.0538 39.8129 43.9646C37.7807 45 35.1205 45 29.8 45H18.2C12.8795 45 10.2193 45 8.18709 43.9646C6.39955 43.0538 4.94624 41.6004 4.03544 39.8129C3 37.7807 3 35.1205 3 29.8V18.2Z" fill="url(#paint1_radial_234_308)"/>
<path d="M3 18.2C3 12.8795 3 10.2193 4.03544 8.18709C4.94624 6.39955 6.39955 4.94624 8.18709 4.03544C10.2193 3 12.8795 3 18.2 3H29.8C35.1205 3 37.7807 3 39.8129 4.03544C41.6004 4.94624 43.0538 6.39955 43.9646 8.18709C45 10.2193 45 12.8795 45 18.2V29.8C45 35.1205 45 37.7807 43.9646 39.8129C43.0538 41.6004 41.6004 43.0538 39.8129 43.9646C37.7807 45 35.1205 45 29.8 45H18.2C12.8795 45 10.2193 45 8.18709 43.9646C6.39955 43.0538 4.94624 41.6004 4.03544 39.8129C3 37.7807 3 35.1205 3 29.8V18.2Z" fill="url(#paint2_radial_234_308)"/>
<path d="M3 18.2C3 12.8795 3 10.2193 4.03544 8.18709C4.94624 6.39955 6.39955 4.94624 8.18709 4.03544C10.2193 3 12.8795 3 18.2 3H29.8C35.1205 3 37.7807 3 39.8129 4.03544C41.6004 4.94624 43.0538 6.39955 43.9646 8.18709C45 10.2193 45 12.8795 45 18.2V29.8C45 35.1205 45 37.7807 43.9646 39.8129C43.0538 41.6004 41.6004 43.0538 39.8129 43.9646C37.7807 45 35.1205 45 29.8 45H18.2C12.8795 45 10.2193 45 8.18709 43.9646C6.39955 43.0538 4.94624 41.6004 4.03544 39.8129C3 37.7807 3 35.1205 3 29.8V18.2Z" fill="url(#paint3_radial_234_308)"/>
<path d="M3 18.2C3 12.8795 3 10.2193 4.03544 8.18709C4.94624 6.39955 6.39955 4.94624 8.18709 4.03544C10.2193 3 12.8795 3 18.2 3H29.8C35.1205 3 37.7807 3 39.8129 4.03544C41.6004 4.94624 43.0538 6.39955 43.9646 8.18709C45 10.2193 45 12.8795 45 18.2V29.8C45 35.1205 45 37.7807 43.9646 39.8129C43.0538 41.6004 41.6004 43.0538 39.8129 43.9646C37.7807 45 35.1205 45 29.8 45H18.2C12.8795 45 10.2193 45 8.18709 43.9646C6.39955 43.0538 4.94624 41.6004 4.03544 39.8129C3 37.7807 3 35.1205 3 29.8V18.2Z" fill="url(#paint4_radial_234_308)"/>
<path d="M3 18.2C3 12.8795 3 10.2193 4.03544 8.18709C4.94624 6.39955 6.39955 4.94624 8.18709 4.03544C10.2193 3 12.8795 3 18.2 3H29.8C35.1205 3 37.7807 3 39.8129 4.03544C41.6004 4.94624 43.0538 6.39955 43.9646 8.18709C45 10.2193 45 12.8795 45 18.2V29.8C45 35.1205 45 37.7807 43.9646 39.8129C43.0538 41.6004 41.6004 43.0538 39.8129 43.9646C37.7807 45 35.1205 45 29.8 45H18.2C12.8795 45 10.2193 45 8.18709 43.9646C6.39955 43.0538 4.94624 41.6004 4.03544 39.8129C3 37.7807 3 35.1205 3 29.8V18.2Z" fill="url(#paint5_radial_234_308)"/>
<path d="M3 18.2C3 12.8795 3 10.2193 4.03544 8.18709C4.94624 6.39955 6.39955 4.94624 8.18709 4.03544C10.2193 3 12.8795 3 18.2 3H29.8C35.1205 3 37.7807 3 39.8129 4.03544C41.6004 4.94624 43.0538 6.39955 43.9646 8.18709C45 10.2193 45 12.8795 45 18.2V29.8C45 35.1205 45 37.7807 43.9646 39.8129C43.0538 41.6004 41.6004 43.0538 39.8129 43.9646C37.7807 45 35.1205 45 29.8 45H18.2C12.8795 45 10.2193 45 8.18709 43.9646C6.39955 43.0538 4.94624 41.6004 4.03544 39.8129C3 37.7807 3 35.1205 3 29.8V18.2Z" fill="url(#paint6_radial_234_308)"/>
<path d="M36.705 15.6538C34.4825 13.1948 31.35 11.8128 28.095 11.8307C24.91 11.8307 21.6725 13.2307 19.59 15.4923C19.205 15.4564 18.82 15.4205 18.4525 15.4205C12.205 15.4205 8.33752 20.8051 8.33752 25.7948C8.35502 28.4872 9.37002 31.0718 11.1725 33.0461C13.0625 35.1102 15.6875 36.2769 18.4525 36.2769H28.095C34.64 36.2769 39.96 30.7666 39.96 24.0179C39.925 20.9128 38.77 17.9333 36.705 15.6538ZM18.26 34.5179C13.6225 34.5179 9.87752 30.6589 9.87752 25.9025C9.87752 21.182 13.605 17.341 18.225 17.3051C20.2725 17.3051 22.425 17.9872 23.79 19.4769L27.3075 23.1743C27.885 23.7846 27.8675 24.7538 27.2725 25.3461C26.6775 25.9384 25.7325 25.9205 25.155 25.3102L21.725 21.6846C19.485 19.7102 16.1075 19.9615 14.1825 22.2589C13.3425 23.2461 12.8875 24.5205 12.8875 25.8307C12.8875 28.8461 15.39 31.3948 18.3475 31.3948H19.03C20.01 32.7948 22.7575 34.5179 22.7575 34.5179H18.26ZM35.445 31.4307C33.5725 33.441 30.9825 34.5718 28.27 34.5897C25.6975 34.5897 23.0725 33.4051 21.06 31.3589L16.475 26.6205C15.8975 26.0102 15.915 25.041 16.4925 24.4487C16.7725 24.1615 17.14 24.0179 17.5425 24.0179C17.945 24.0179 18.33 24.1795 18.61 24.4846L23.1775 29.1692C24.63 30.6589 26.485 31.5025 28.27 31.5025C30.1775 31.5025 31.9975 30.6948 33.31 29.2589C34.6575 27.841 35.41 25.9384 35.41 23.9641C35.41 19.9077 32.19 16.623 28.235 16.6051C26.73 16.6051 25.4875 16.9102 24.2625 17.7897C23.569 17.0785 22.075 16.3718 21.3925 16.2282C23.2825 14.4154 25.645 13.5359 28.235 13.5359C33.8525 13.5359 38.385 18.2025 38.4025 23.9641C38.4025 26.7461 37.3525 29.4384 35.445 31.4307Z" fill="white"/>
<defs>
<radialGradient id="paint0_radial_234_308" cx="0" cy="0" r="1" gradientUnits="userSpaceOnUse" gradientTransform="translate(37.9125 38.8974) rotate(46.87) scale(25.0857 25.6947)">
<stop stop-color="#68E048"/>
<stop offset="1" stop-color="#5CE049" stop-opacity="0"/>
</radialGradient>
<radialGradient id="paint1_radial_234_308" cx="0" cy="0" r="1" gradientUnits="userSpaceOnUse" gradientTransform="translate(9.65 38.7179) rotate(137.364) scale(25.5717 26.2905)">
<stop stop-color="#308CFE"/>
<stop offset="1" stop-color="#2F8BFF" stop-opacity="0"/>
</radialGradient>
<radialGradient id="paint2_radial_234_308" cx="0" cy="0" r="1" gradientUnits="userSpaceOnUse" gradientTransform="translate(37.125 26.5128) rotate(7.9001) scale(15.0175 15.7828)">
<stop stop-color="#FDD511"/>
<stop offset="1" stop-color="#FDD20D" stop-opacity="0"/>
</radialGradient>
<radialGradient id="paint3_radial_234_308" cx="0" cy="0" r="1" gradientUnits="userSpaceOnUse" gradientTransform="translate(10.175 18.1667) rotate(-127.134) scale(22.1763 22.5961)">
<stop stop-color="#F928C2"/>
<stop offset="1" stop-color="#F922BC" stop-opacity="0"/>
</radialGradient>
<radialGradient id="paint4_radial_234_308" cx="0" cy="0" r="1" gradientUnits="userSpaceOnUse" gradientTransform="translate(26.8 10) rotate(-63.404) scale(22.2807 22.5127)">
<stop stop-color="#F90700"/>
<stop offset="1" stop-color="#F90700" stop-opacity="0"/>
</radialGradient>
<radialGradient id="paint5_radial_234_308" cx="0" cy="0" r="1" gradientUnits="userSpaceOnUse" gradientTransform="translate(42.725 9.10257) rotate(-65.6935) scale(13.3923 13.5101)">
<stop stop-color="#FB4200"/>
<stop offset="1" stop-color="#FB4300" stop-opacity="0"/>
</radialGradient>
<radialGradient id="paint6_radial_234_308" cx="0" cy="0" r="1" gradientUnits="userSpaceOnUse" gradientTransform="translate(7.375 8.11539) rotate(-133.672) scale(11.9111 12.2061)">
<stop stop-color="#FE0D88"/>
<stop offset="1" stop-color="#FE0D88" stop-opacity="0"/>
</radialGradient>
</defs>
</svg>
