<svg width="48" height="48" viewBox="0 0 48 48" fill="none" xmlns="http://www.w3.org/2000/svg">
<g clip-path="url(#clip0_308_83)">
<path d="M44 0H6C2.68629 0 0 2.68629 0 6V42C0 45.3137 2.68629 48 6 48L40 48H42C45.3137 48 48 45.3137 48 42V4.01409C48 1.80266 46.2114 0.00777449 44 0Z" fill="#CC6699"/>
<path d="M24.1874 8.24998C15.1874 11.3437 9.3749 17.625 9.9374 21.375C10.4999 25.125 16.1249 28.125 18.6562 30.0937C15.3749 31.7812 11.2499 34.3125 11.3437 37.5937C11.5312 42.0937 16.4062 40.6875 18.4687 39.375C20.5312 38.0625 22.5937 34.4062 21.2812 30.5625C24.1874 29.8125 26.7187 30.75 27.4687 31.3125C30.3749 33.375 28.8749 35.7187 27.8437 36.0937C26.8124 36.4687 27.4687 36.6562 28.1249 36.4687C28.7812 36.2812 30.1874 35.3437 30.1874 33.75C30.1874 29.7187 25.8749 27.8437 20.5312 29.25C17.4374 25.9687 13.2187 24.4687 13.4062 20.9062C13.4999 19.5937 13.9687 16.2187 22.3124 12C30.6562 7.78123 36.5624 9.46873 35.8124 13.3125C34.6874 19.125 24.5624 23.0625 20.9999 19.6875C20.8124 19.3125 20.1562 19.0312 20.5312 20.0625C22.4062 24.75 37.5937 22.5937 38.2499 12.6562C38.4374 7.40623 30.8437 5.99998 24.1874 8.24998ZM16.1249 38.25C13.7812 39 13.8749 37.5 13.9687 36.9375C14.2499 35.3437 15.5624 33.375 19.4999 31.4062C20.6249 34.9687 18.0937 37.6875 16.1249 38.25Z" fill="white"/>
</g>
<defs>
<clipPath id="clip0_308_83">
<rect width="48" height="48" fill="white"/>
</clipPath>
</defs>
</svg>
