<svg width="48" height="48" viewBox="0 0 48 48" fill="none" xmlns="http://www.w3.org/2000/svg">
<path d="M0 41.8108C0 45.2293 2.77106 48 6.18919 48H41.8106C45.2293 48 48 45.2289 48 41.8108V6.18937C48 2.77069 45.2289 0 41.8108 0H6.18937C2.77069 0 0 2.77106 0 6.18919V41.8106V41.8108Z" fill="#563D7C"/>
<path d="M19.9047 21.2321V14.4347H25.888C26.458 14.4347 27.0074 14.4821 27.5365 14.5772C28.0657 14.6721 28.5339 14.8416 28.9409 15.0859C29.3478 15.3302 29.6735 15.6694 29.9178 16.1034C30.1619 16.5377 30.2842 17.094 30.2842 17.7722C30.2842 18.9934 29.9178 19.8754 29.185 20.418C28.4525 20.9608 27.5163 21.2321 26.3765 21.2321H19.9047V21.2321ZM13.5142 9.46875V38.5312H27.5977C28.9002 38.5312 30.1689 38.3685 31.4035 38.0428C32.6382 37.7171 33.7372 37.2152 34.7005 36.5368C35.6637 35.8584 36.4304 34.9832 37.0002 33.9114C37.5702 32.8395 37.855 31.5709 37.855 30.1056C37.855 28.2874 37.414 26.7339 36.5322 25.4451C35.6502 24.156 34.3137 23.2537 32.5227 22.7381C33.8253 22.1141 34.8091 21.3135 35.474 20.3366C36.1387 19.3597 36.4711 18.1388 36.4711 16.6733C36.4711 15.3165 36.2472 14.1769 35.7995 13.2542C35.3517 12.3317 34.7208 11.5922 33.9067 11.0359C33.0927 10.4796 32.1159 10.0792 30.976 9.83512C29.8364 9.59081 28.5745 9.46875 27.1906 9.46875H13.5142V9.46875ZM19.9047 33.5653V25.5874H26.8649C28.2489 25.5874 29.3615 25.9061 30.2028 26.544C31.0439 27.1817 31.4647 28.2467 31.4647 29.7392C31.4647 30.4991 31.3357 31.1231 31.0779 31.6116C30.82 32.1 30.4741 32.4868 30.0399 32.7716C29.6058 33.0566 29.1037 33.2601 28.5338 33.3823C27.9638 33.5042 27.367 33.5653 26.7429 33.5653H19.9047V33.5653Z" fill="white"/>
</svg>
