<svg width="48" height="48" viewBox="0 0 48 48" fill="none" xmlns="http://www.w3.org/2000/svg">
<path d="M1.00347 26.4226C-0.334493 25.0846 -0.33449 22.9154 1.00348 21.5774L21.5774 1.00347C22.9154 -0.334493 25.0846 -0.33449 26.4226 1.00348L46.9965 21.5774C48.3345 22.9154 48.3345 25.0846 46.9965 26.4226L26.4226 46.9965C25.0846 48.3345 22.9154 48.3345 21.5774 46.9965L1.00347 26.4226Z" fill="#EE513B"/>
<path d="M16.3198 6L14 8.17115L19.9915 13.7787C19.7492 14.2653 19.6138 14.8081 19.6138 15.3804C19.6138 17.0054 20.7047 18.3919 22.2384 18.9334V32.6508C20.7047 33.1923 19.6138 34.5788 19.6138 36.2038C19.6138 38.3004 21.4299 40 23.67 40C25.9102 40 27.7262 38.3004 27.7262 36.2038C27.7262 34.7306 26.8296 33.4534 25.5192 32.8241V18.952L31.2465 24.3123C31.016 24.7891 30.8876 25.3185 30.8876 25.8758C30.8876 27.9724 32.7037 29.6721 34.9438 29.6721C37.184 29.6721 39 27.9724 39 25.8758C39 23.7792 37.184 22.0796 34.9438 22.0796C34.5085 22.0796 34.0892 22.1438 33.6961 22.2626L27.545 16.5058C27.6628 16.1502 27.7262 15.7722 27.7262 15.3804C27.7262 13.2838 25.9102 11.5842 23.67 11.5842C23.2514 11.5842 22.8476 11.6436 22.4676 11.7538L16.3198 6Z" fill="white"/>
</svg>
