<svg width="48" height="48" viewBox="0 0 48 48" fill="none" xmlns="http://www.w3.org/2000/svg">
<rect x="3" y="3" width="42" height="42" fill="#FFCA28"/>
<path d="M28.5 37.9315L31.5923 35.8854C31.8346 36.6467 33.3692 38.455 35.3077 38.455C37.2462 38.455 38.1462 37.3962 38.1462 36.6943C38.1462 34.7815 36.1668 34.1071 35.2161 33.7832C35.0611 33.7304 34.9334 33.6869 34.8462 33.6489C34.8014 33.6294 34.7337 33.6035 34.6468 33.5703C33.5895 33.1664 29.6885 31.676 29.6885 27.3558C29.6885 22.5973 34.2808 22.05 35.3192 22.05C35.9986 22.05 39.2654 22.1333 40.8923 25.1907L37.8923 27.2844C37.2346 25.952 36.1419 25.5119 35.4692 25.5119C33.8077 25.5119 33.4615 26.73 33.4615 27.2844C33.4615 28.8402 35.2667 29.5376 36.791 30.1264C37.1898 30.2804 37.5693 30.427 37.8923 30.5796C39.5538 31.3648 42 32.6496 42 36.6943C42 38.7202 40.3008 42 36.0231 42C30.2769 42 28.7538 38.5501 28.5 37.9315Z" fill="#3E3E3E"/>
<path d="M13.5 38.3379L16.723 36.2927C16.9756 37.0537 17.9569 38.4568 19.3808 38.4568C20.8047 38.4568 21.5335 36.9943 21.5335 36.2927V22.5001H25.4973V36.2927C25.5614 38.1952 24.5063 42.0001 19.8498 42.0001C15.5685 42.0001 13.7886 39.4555 13.5 38.3379Z" fill="#3E3E3E"/>
</svg>
