<svg width="48" height="48" viewBox="0 0 48 48" fill="none" xmlns="http://www.w3.org/2000/svg">
<path fill-rule="evenodd" clip-rule="evenodd" d="M40.4574 31.9676C40.6602 31.851 40.8286 31.6833 40.9462 31.4811C41.0637 31.2789 41.1259 31.0494 41.1267 30.8155L41.1507 23.0996C41.1514 22.8657 41.2137 22.6361 41.3313 22.434C41.4487 22.2317 41.6172 22.0639 41.82 21.9475L46.0027 19.5448C46.2054 19.4284 46.4352 19.3674 46.6689 19.3678C46.9027 19.3681 47.1322 19.4299 47.3346 19.5471C47.5369 19.6642 47.7049 19.8325 47.8218 20.0349C47.9385 20.2374 48 20.4671 48 20.7009V34.7289C48 34.9633 47.938 35.1937 47.8206 35.3967C47.7031 35.5996 47.5341 35.7681 47.3307 35.8848L31.5453 44.9515C31.3437 45.0672 31.1154 45.1284 30.8829 45.1284C30.6504 45.1287 30.4219 45.0682 30.22 44.9529L17.832 37.8675C17.628 37.7508 17.4583 37.5825 17.3403 37.3793C17.2222 37.176 17.1601 36.9451 17.16 36.7102V29.6369C17.16 29.6289 17.1693 29.6235 17.1774 29.6275C17.184 29.6316 17.1933 29.6276 17.1933 29.6183V29.6102C17.1933 29.6049 17.196 29.5995 17.2014 29.5968L27.4041 23.7355C27.4134 23.7301 27.4093 23.7156 27.3987 23.7156C27.3958 23.7156 27.3933 23.7144 27.3912 23.7123C27.3891 23.7103 27.388 23.7076 27.388 23.7049L27.408 16.7702C27.4089 16.5357 27.348 16.3051 27.2313 16.1017C27.1147 15.8982 26.9466 15.7291 26.7436 15.6115C26.5408 15.4938 26.3106 15.4318 26.076 15.4315C25.8415 15.4312 25.6111 15.4929 25.408 15.6102L17.8254 19.9796C17.6229 20.0961 17.3937 20.1575 17.16 20.1575C16.9266 20.1575 16.6971 20.0961 16.4947 19.9796L8.88801 15.5995C8.68536 15.4828 8.45557 15.4215 8.22172 15.4216C7.98787 15.4218 7.75818 15.4836 7.55569 15.6004C7.35319 15.7174 7.18504 15.8857 7.06807 16.0881C6.95113 16.2906 6.88948 16.5204 6.88935 16.7543V29.2875C6.8895 29.5212 6.82828 29.7505 6.71181 29.9532C6.59535 30.1557 6.42774 30.324 6.22573 30.4415C6.02373 30.5588 5.79445 30.6209 5.56086 30.6216C5.32725 30.6227 5.09752 30.5621 4.89468 30.4463L0.673343 28.0329C0.46888 27.9161 0.29899 27.7472 0.180956 27.5435C0.0629209 27.3396 0.000949833 27.1083 0.00134465 26.8728L0.038678 4.96618C0.0391861 4.73263 0.101027 4.50331 0.218012 4.3012C0.334996 4.09906 0.50302 3.93121 0.705266 3.81442C0.907513 3.69763 1.13689 3.63603 1.37043 3.63574C1.60398 3.63546 1.83349 3.69654 2.03601 3.81285L16.4961 12.1182C16.6981 12.2342 16.927 12.2953 17.16 12.2953C17.3931 12.2953 17.622 12.2342 17.824 12.1182L32.28 3.81285C32.4828 3.69637 32.7127 3.63529 32.9466 3.63574C33.1806 3.63619 33.4101 3.69817 33.6126 3.81543C33.8148 3.93268 33.9828 4.1011 34.0995 4.3038C34.2163 4.50648 34.2777 4.73629 34.2774 4.97019V26.8822C34.2775 27.1165 34.2157 27.3468 34.0984 27.5498C33.9813 27.7527 33.8125 27.9213 33.6093 28.0382L26.0386 32.3982C25.8354 32.5154 25.6665 32.6842 25.5493 32.8875C25.4322 33.091 25.3707 33.3216 25.3713 33.5563C25.3717 33.7911 25.4343 34.0215 25.5525 34.2243C25.6705 34.4271 25.8402 34.5953 26.044 34.7115L30.22 37.0889C30.4219 37.2036 30.6501 37.2639 30.8824 37.2635C31.1145 37.263 31.3426 37.202 31.5441 37.0862L40.4574 31.9676ZM41.3334 12.3115C41.3335 12.5473 41.3962 12.7788 41.515 12.9825C41.634 13.1861 41.8047 13.3546 42.0099 13.4707C42.2151 13.587 42.4474 13.6466 42.6832 13.6437C42.9189 13.6407 43.1497 13.5754 43.3521 13.4542L47.352 11.0542C47.5495 10.9359 47.7129 10.7684 47.8266 10.5682C47.94 10.3679 47.9998 10.1417 48 9.91152V5.02084C47.9997 4.78516 47.9367 4.5538 47.8177 4.35033C47.6988 4.14687 47.5281 3.97855 47.3229 3.86257C47.1177 3.74656 46.8855 3.68703 46.6498 3.69C46.4142 3.69298 46.1835 3.75837 45.9813 3.87952L41.9814 6.27951C41.7838 6.39783 41.6205 6.56526 41.5068 6.76551C41.3934 6.96574 41.3335 7.19199 41.3334 7.42216V12.3129V12.3115Z" fill="#007FFF"/>
</svg>
