<svg width="48" height="48" viewBox="0 0 48 48" fill="none" xmlns="http://www.w3.org/2000/svg">
<circle cx="24" cy="24" r="24" fill="#028CB0"/>
<path d="M9.18308 23.5C9.18308 29.1735 12.4831 34.06 17.2554 36.3827L10.4269 17.6742C9.60697 19.507 9.18311 21.4922 9.18308 23.5ZM23.5 37.8169C25.1627 37.8169 26.7619 37.525 28.2596 37.0046L28.1581 36.8142L23.7538 24.7565L19.4638 37.2331C20.7331 37.6138 22.0912 37.8169 23.5 37.8169ZM25.4673 16.7858L30.6458 32.1815L32.08 27.4092C32.6892 25.4292 33.1588 24.0077 33.1588 22.7765C33.1588 20.9996 32.5242 19.7812 31.9912 18.8419C31.255 17.6488 30.5823 16.6462 30.5823 15.4785C30.5823 14.1585 31.5723 12.94 32.9938 12.94H33.1715C30.5335 10.5182 27.0811 9.17711 23.5 9.18308C21.1288 9.18263 18.7948 9.77165 16.7077 10.8971C14.6207 12.0226 12.8462 13.6493 11.5438 15.6308L12.4577 15.6562C13.9554 15.6562 16.2654 15.4658 16.2654 15.4658C17.0523 15.4277 17.1412 16.5573 16.3669 16.6462C16.3669 16.6462 15.5927 16.7477 14.7169 16.7858L19.9462 32.2958L23.0812 22.9035L20.8473 16.7858C20.3469 16.7582 19.8475 16.7158 19.3496 16.6588C18.5754 16.6081 18.6642 15.4277 19.4385 15.4658C19.4385 15.4658 21.7992 15.6562 23.2081 15.6562C24.7058 15.6562 27.0158 15.4658 27.0158 15.4658C27.79 15.4277 27.8915 16.5573 27.1173 16.6462C27.1173 16.6462 26.3431 16.735 25.4673 16.7858ZM30.6965 35.875C32.8624 34.6156 34.6599 32.81 35.9094 30.6384C37.1589 28.4668 37.8166 26.0054 37.8169 23.5C37.8169 21.0123 37.1823 18.6769 36.0654 16.6335C36.2922 18.8816 35.9518 21.1508 35.0754 23.2335L30.6965 35.875ZM23.5 40C19.1239 40 14.9271 38.2616 11.8327 35.1673C8.73839 32.0729 7 27.8761 7 23.5C7 19.1239 8.73839 14.9271 11.8327 11.8327C14.9271 8.73839 19.1239 7 23.5 7C27.8761 7 32.0729 8.73839 35.1673 11.8327C38.2616 14.9271 40 19.1239 40 23.5C40 27.8761 38.2616 32.0729 35.1673 35.1673C32.0729 38.2616 27.8761 40 23.5 40Z" fill="white"/>
</svg>
